<svg id="visual" viewBox="0 0 900 100" width="900" height="100" xmlns="http://www.w3.org/2000/svg" xmlns:xlink="http://www.w3.org/1999/xlink" version="1.1"><path d="M0 12L6.5 13.2C13 14.3 26 16.7 39 16.8C52 17 65 15 78 15C91 15 104 17 117.2 18C130.3 19 143.7 19 156.8 18.7C170 18.3 183 17.7 196 17.5C209 17.3 222 17.7 235 17.7C248 17.7 261 17.3 274 16.2C287 15 300 13 313 14C326 15 339 19 352 20.5C365 22 378 21 391 19.7C404 18.3 417 16.7 430.2 16.8C443.3 17 456.7 19 469.8 20C483 21 496 21 509 20.7C522 20.3 535 19.7 548 18.2C561 16.7 574 14.3 587 13.5C600 12.7 613 13.3 626 14C639 14.7 652 15.3 665 15C678 14.7 691 13.3 704 13.3C717 13.3 730 14.7 743.2 15.5C756.3 16.3 769.7 16.7 782.8 16.5C796 16.3 809 15.7 822 16.3C835 17 848 19 861 19.2C874 19.3 887 17.7 893.5 16.8L900 16L900 0L893.5 0C887 0 874 0 861 0C848 0 835 0 822 0C809 0 796 0 782.8 0C769.7 0 756.3 0 743.2 0C730 0 717 0 704 0C691 0 678 0 665 0C652 0 639 0 626 0C613 0 600 0 587 0C574 0 561 0 548 0C535 0 522 0 509 0C496 0 483 0 469.8 0C456.7 0 443.3 0 430.2 0C417 0 404 0 391 0C378 0 365 0 352 0C339 0 326 0 313 0C300 0 287 0 274 0C261 0 248 0 235 0C222 0 209 0 196 0C183 0 170 0 156.8 0C143.7 0 130.3 0 117.2 0C104 0 91 0 78 0C65 0 52 0 39 0C26 0 13 0 6.5 0L0 0Z" fill="#0d6efd"></path><path d="M0 48L6.5 48.3C13 48.7 26 49.3 39 49.3C52 49.3 65 48.7 78 50.7C91 52.7 104 57.3 117.2 55.3C130.3 53.3 143.7 44.7 156.8 41C170 37.3 183 38.7 196 40.5C209 42.3 222 44.7 235 45.7C248 46.7 261 46.3 274 46C287 45.7 300 45.3 313 49C326 52.7 339 60.3 352 62.5C365 64.7 378 61.3 391 58.8C404 56.3 417 54.7 430.2 54C443.3 53.3 456.7 53.7 469.8 53C483 52.3 496 50.7 509 49.3C522 48 535 47 548 48.3C561 49.7 574 53.3 587 52.5C600 51.7 613 46.3 626 47C639 47.7 652 54.3 665 57.3C678 60.3 691 59.7 704 58.7C717 57.7 730 56.3 743.2 52.5C756.3 48.7 769.7 42.3 782.8 41.2C796 40 809 44 822 44.7C835 45.3 848 42.7 861 40.8C874 39 887 38 893.5 37.5L900 37L900 14L893.5 14.8C887 15.7 874 17.3 861 17.2C848 17 835 15 822 14.3C809 13.7 796 14.3 782.8 14.5C769.7 14.7 756.3 14.3 743.2 13.5C730 12.7 717 11.3 704 11.3C691 11.3 678 12.7 665 13C652 13.3 639 12.7 626 12C613 11.3 600 10.7 587 11.5C574 12.3 561 14.7 548 16.2C535 17.7 522 18.3 509 18.7C496 19 483 19 469.8 18C456.7 17 443.3 15 430.2 14.8C417 14.7 404 16.3 391 17.7C378 19 365 20 352 18.5C339 17 326 13 313 12C300 11 287 13 274 14.2C261 15.3 248 15.7 235 15.7C222 15.7 209 15.3 196 15.5C183 15.7 170 16.3 156.8 16.7C143.7 17 130.3 17 117.2 16C104 15 91 13 78 13C65 13 52 15 39 14.8C26 14.7 13 12.3 6.5 11.2L0 10Z" fill="#8b9bff"></path><path d="M0 77L6.5 74.8C13 72.7 26 68.3 39 67.3C52 66.3 65 68.7 78 70.7C91 72.7 104 74.3 117.2 72.3C130.3 70.3 143.7 64.7 156.8 61.7C170 58.7 183 58.3 196 60.2C209 62 222 66 235 68C248 70 261 70 274 68.8C287 67.7 300 65.3 313 67C326 68.7 339 74.3 352 77C365 79.7 378 79.3 391 79.2C404 79 417 79 430.2 77.2C443.3 75.3 456.7 71.7 469.8 69.8C483 68 496 68 509 68C522 68 535 68 548 69.8C561 71.7 574 75.3 587 75.7C600 76 613 73 626 73C639 73 652 76 665 77.3C678 78.7 691 78.3 704 77.8C717 77.3 730 76.7 743.2 73.8C756.3 71 769.7 66 782.8 64.5C796 63 809 65 822 64.8C835 64.7 848 62.3 861 62C874 61.7 887 63.3 893.5 64.2L900 65L900 35L893.5 35.5C887 36 874 37 861 38.8C848 40.7 835 43.3 822 42.7C809 42 796 38 782.8 39.2C769.7 40.3 756.3 46.7 743.2 50.5C730 54.3 717 55.7 704 56.7C691 57.7 678 58.3 665 55.3C652 52.3 639 45.7 626 45C613 44.3 600 49.7 587 50.5C574 51.3 561 47.7 548 46.3C535 45 522 46 509 47.3C496 48.7 483 50.3 469.8 51C456.7 51.7 443.3 51.3 430.2 52C417 52.7 404 54.3 391 56.8C378 59.3 365 62.7 352 60.5C339 58.3 326 50.7 313 47C300 43.3 287 43.7 274 44C261 44.3 248 44.7 235 43.7C222 42.7 209 40.3 196 38.5C183 36.7 170 35.3 156.8 39C143.7 42.7 130.3 51.3 117.2 53.3C104 55.3 91 50.7 78 48.7C65 46.7 52 47.3 39 47.3C26 47.3 13 46.7 6.5 46.3L0 46Z" fill="#c9ccff"></path><path d="M0 101L6.5 101C13 101 26 101 39 101C52 101 65 101 78 101C91 101 104 101 117.2 101C130.3 101 143.7 101 156.8 101C170 101 183 101 196 101C209 101 222 101 235 101C248 101 261 101 274 101C287 101 300 101 313 101C326 101 339 101 352 101C365 101 378 101 391 101C404 101 417 101 430.2 101C443.3 101 456.7 101 469.8 101C483 101 496 101 509 101C522 101 535 101 548 101C561 101 574 101 587 101C600 101 613 101 626 101C639 101 652 101 665 101C678 101 691 101 704 101C717 101 730 101 743.2 101C756.3 101 769.7 101 782.8 101C796 101 809 101 822 101C835 101 848 101 861 101C874 101 887 101 893.5 101L900 101L900 63L893.5 62.2C887 61.3 874 59.7 861 60C848 60.3 835 62.7 822 62.8C809 63 796 61 782.8 62.5C769.7 64 756.3 69 743.2 71.8C730 74.7 717 75.3 704 75.8C691 76.3 678 76.7 665 75.3C652 74 639 71 626 71C613 71 600 74 587 73.7C574 73.3 561 69.7 548 67.8C535 66 522 66 509 66C496 66 483 66 469.8 67.8C456.7 69.7 443.3 73.3 430.2 75.2C417 77 404 77 391 77.2C378 77.3 365 77.7 352 75C339 72.3 326 66.7 313 65C300 63.3 287 65.7 274 66.8C261 68 248 68 235 66C222 64 209 60 196 58.2C183 56.3 170 56.7 156.8 59.7C143.7 62.7 130.3 68.3 117.2 70.3C104 72.3 91 70.7 78 68.7C65 66.7 52 64.3 39 65.3C26 66.3 13 70.7 6.5 72.8L0 75Z" fill="#ffffff"></path></svg>